<svg id="レイヤー_1" data-name="レイヤー 1" xmlns="http://www.w3.org/2000/svg" viewBox="0 0 100 100"><defs><style>.cls-1,.cls-3{fill:none;stroke-linecap:round;stroke-linejoin:round;stroke-width:2px;}.cls-1{stroke:#e53144;}.cls-2{fill:#333;}.cls-3{stroke:#333;}</style></defs><polyline class="cls-1" points="69.6 65.56 67.5 54.26 85 38.5 60.82 35.25 50 15 39.18 35.25 15 38.5 32.5 54.26 30.4 65.56"/><path class="cls-2" d="M50,38.4c5.51,0,10,5.38,10,12s-4.49,12-10,12S40,57,40,50.4s4.49-12,10-12m0-2c-6.63,0-12,6.27-12,14s5.37,14,12,14,12-6.27,12-14-5.37-14-12-14Z"/><path class="cls-3" d="M26,99l3.54-22c.59-5.11,5.5-9,11.37-9H59.09c5.87,0,10.78,3.89,11.37,9L74,99"/><path class="cls-2" d="M18,57c3.48,0,6.32,3.46,6.32,7.71s-2.84,7.7-6.32,7.7-6.32-3.45-6.32-7.7S14.52,57,18,57m0-2c-4.59,0-8.32,4.35-8.32,9.71s3.73,9.7,8.32,9.7,8.32-4.34,8.32-9.7S22.59,55,18,55Z"/><path class="cls-3" d="M1.36,99,3.82,83.75c.4-3.54,3.81-6.24,7.88-6.24H24.3A8.65,8.65,0,0,1,29.22,79"/><path class="cls-2" d="M82,57c3.48,0,6.32,3.46,6.32,7.71s-2.84,7.7-6.32,7.7-6.32-3.45-6.32-7.7S78.52,57,82,57m0-2c-4.59,0-8.32,4.35-8.32,9.71s3.73,9.7,8.32,9.7,8.32-4.34,8.32-9.7S86.59,55,82,55Z"/><path class="cls-3" d="M98.64,99,96.18,83.75c-.4-3.54-3.81-6.24-7.88-6.24H75.7A8.65,8.65,0,0,0,70.78,79"/><line class="cls-1" x1="50" y1="1" x2="50" y2="8"/><line class="cls-1" x1="22.03" y1="11.53" x2="26.97" y2="16.47"/><line class="cls-1" x1="76.97" y1="11.53" x2="72.03" y2="16.47"/></svg>