<svg id="レイヤー_1" data-name="レイヤー 1" xmlns="http://www.w3.org/2000/svg" viewBox="0 0 100 100"><defs><style>.cls-1{fill:#e53144;}.cls-2,.cls-3{fill:none;stroke-linejoin:round;stroke-width:2px;}.cls-2{stroke:#e53144;}.cls-3{stroke:#333;stroke-linecap:round;}</style></defs><path class="cls-1" d="M57,22a13,13,0,0,0-9.21,22.16L49,44l2,1,2,2v-4a9,9,0,1,1,8,0v4.31A13,13,0,0,0,57,22Z"/><path class="cls-1" d="M89,40a5,5,0,1,1-5,5,5,5,0,0,1,5-5m0-2a7,7,0,1,0,7,7,7,7,0,0,0-7-7Z"/><path class="cls-1" d="M23,44a5,5,0,1,1-5,5,5,5,0,0,1,5-5m0-2a7,7,0,1,0,7,7,7,7,0,0,0-7-7Z"/><path class="cls-1" d="M46,2a5,5,0,1,1-5,5,5,5,0,0,1,5-5m0-2a7,7,0,1,0,7,7,7,7,0,0,0-7-7Z"/><path class="cls-1" d="M13,16a5,5,0,1,1-5,5,5,5,0,0,1,5-5m0-2a7,7,0,1,0,7,7,7,7,0,0,0-7-7Z"/><path class="cls-1" d="M76,13a5,5,0,1,1-5,5,5,5,0,0,1,5-5m0-2a7,7,0,1,0,7,7,7,7,0,0,0-7-7Z"/><path class="cls-1" d="M74,59a2,2,0,1,1-2,2,2,2,0,0,1,2-2m0-2a4,4,0,1,0,4,4,4,4,0,0,0-4-4Z"/><path class="cls-1" d="M4,38a2,2,0,1,1-2,2,2,2,0,0,1,2-2m0-2a4,4,0,1,0,4,4,4,4,0,0,0-4-4Z"/><path class="cls-1" d="M93,7a2,2,0,1,1-2,2,2,2,0,0,1,2-2m0-2a4,4,0,1,0,4,4,4,4,0,0,0-4-4Z"/><path class="cls-1" d="M20,4a2,2,0,1,1-2,2,2,2,0,0,1,2-2m0-2a4,4,0,1,0,4,4,4,4,0,0,0-4-4Z"/><path class="cls-1" d="M16,75a2,2,0,1,1-2,2,2,2,0,0,1,2-2m0-2a4,4,0,1,0,4,4,4,4,0,0,0-4-4Z"/><path class="cls-1" d="M96,80a2,2,0,1,1-2,2,2,2,0,0,1,2-2m0-2a4,4,0,1,0,4,4,4,4,0,0,0-4-4Z"/><line class="cls-2" x1="19" y1="23" x2="46" y2="32"/><line class="cls-2" x1="45" y1="40" x2="29" y2="47"/><line class="cls-2" x1="65" y1="27" x2="71" y2="22"/><line class="cls-2" x1="66" y1="38" x2="83" y2="44"/><line class="cls-2" x1="48" y1="13" x2="53" y2="25"/><path class="cls-3" d="M53,61V35.54C53,33,54.7,31,56.8,31h.4c2.1,0,3.8,2,3.8,4.54V72"/><path class="cls-3" d="M45,62V47.89A3.89,3.89,0,0,1,48.89,44h.22A3.89,3.89,0,0,1,53,47.89V62"/><path class="cls-3" d="M38,62V50.89C38,48.74,39.46,47,41.26,47h.48c1.8,0,3.26,1.74,3.26,3.89V62"/><path class="cls-3" d="M57,99V92.22a6.45,6.45,0,0,1,.3-2l4.5-4.92a12.92,12.92,0,0,0,3.08-5.93L68.4,68.35a3.89,3.89,0,0,0-2-5.14h0a3.87,3.87,0,0,0-5.14,1.94"/><path class="cls-3" d="M38,61V56.66a3,3,0,0,0-3-3h0a3,3,0,0,0-3,3V72.3a6.21,6.21,0,0,0,.38,2.13l4.24,15.43A6.27,6.27,0,0,1,37,92v7"/></svg>