<svg id="レイヤー_1" data-name="レイヤー 1" xmlns="http://www.w3.org/2000/svg" viewBox="0 0 100 100"><defs><style>.cls-1,.cls-2{fill:none;stroke-linecap:round;stroke-linejoin:round;stroke-width:2px;}.cls-1{stroke:#333;}.cls-2{stroke:#e53144;}.cls-3{fill:#e53144;}</style></defs><polyline class="cls-1" points="82 39 91 39 91 91 8 91 8 39 29 39"/><line class="cls-1" x1="71.6" y1="39" x2="75" y2="39"/><polyline class="cls-1" points="7 47 1 47 1 99 99 99 99 47 93 47"/><line class="cls-1" x1="50" y1="91" x2="50" y2="54"/><line class="cls-1" x1="24" y1="52" x2="37" y2="52"/><line class="cls-1" x1="19" y1="61" x2="40" y2="61"/><line class="cls-1" x1="19" y1="70" x2="40" y2="70"/><line class="cls-1" x1="19" y1="79" x2="40" y2="79"/><line class="cls-1" x1="76" y1="52" x2="63" y2="52"/><line class="cls-1" x1="81" y1="61" x2="60" y2="61"/><line class="cls-1" x1="81" y1="70" x2="60" y2="70"/><line class="cls-1" x1="81" y1="79" x2="60" y2="79"/><path class="cls-2" d="M29,26V43.79c0,3.42,9.4,6.2,21,6.2s21-2.78,21-6.2V26"/><path class="cls-3" d="M50,2.19,85.13,18,50,33.81,14.87,18,50,2.19M50,0,10,18,50,36,90,18,50,0Z"/><polyline class="cls-2" points="63 15.11 79 23.11 79 30"/><rect class="cls-2" x="76" y="30" width="6" height="16" rx="3"/></svg>