<svg id="レイヤー_1" data-name="レイヤー 1" xmlns="http://www.w3.org/2000/svg" viewBox="0 0 240 240"><defs><style>.cls-1,.cls-2{fill:none;stroke-linecap:round;stroke-linejoin:round;stroke-width:3px;}.cls-1{stroke:#e53144;}.cls-2{stroke:#333;}</style></defs><path class="cls-1" d="M45.23,100.8H29.9V99.39L38.28,82"/><line class="cls-1" x1="43.51" y1="91.42" x2="43.51" y2="106.25"/><path class="cls-1" d="M209.23,100.8H193.9V99.39L202.28,82"/><line class="cls-1" x1="207.51" y1="91.42" x2="207.51" y2="106.25"/><path class="cls-1" d="M179,107.5a59,59,0,0,0-118,0"/><line class="cls-2" x1="7.5" y1="118.5" x2="232.5" y2="118.5"/><line class="cls-2" x1="127.5" y1="141.5" x2="197.5" y2="141.5"/><line class="cls-2" x1="41.5" y1="141.5" x2="53.5" y2="141.5"/><line class="cls-2" x1="103.5" y1="141.5" x2="116.5" y2="141.5"/><line class="cls-2" x1="64.5" y1="141.5" x2="93.5" y2="141.5"/><line class="cls-2" x1="79.5" y1="165.5" x2="92.5" y2="165.5"/><line class="cls-2" x1="102.5" y1="165.5" x2="159.5" y2="165.5"/><line class="cls-2" x1="118.5" y1="188.5" x2="120.5" y2="188.5"/></svg>