<svg id="talent" xmlns="http://www.w3.org/2000/svg" width="48" height="48" viewBox="0 0 48 48">
  <defs>
    <style>
      .cls-1 {
        fill: #42acd4;
      }

      .cls-1, .cls-2 {
        fill-rule: evenodd;
      }

      .cls-2 {
        fill: #fff;
      }
    </style>
  </defs>
  <path id="talent-2" data-name="talent" class="cls-1" d="M367,1534l48,48v-44a4,4,0,0,0-4-4H367Z" transform="translate(-367 -1534)"/>
  <path id="シェイプ_2504" data-name="シェイプ 2504" class="cls-2" d="M399.751,1550.84a2.005,2.005,0,1,0-3.466-.03l-2.166,3.7a1,1,0,1,0,1.73,1.01l2.166-3.7A1.993,1.993,0,0,0,399.751,1550.84Zm2.748-3.34a3.76,3.76,0,1,0-3.758-3.76A3.756,3.756,0,0,0,402.5,1547.5Zm0,1.88c-0.157,0-.333.01-0.507,0.02a3.952,3.952,0,0,1-2.709,4.22l-1.293,1.39h12.024v-1.87C410.014,1550.64,405.007,1549.38,402.5,1549.38Z" transform="translate(-367 -1534)"/>
</svg>
