<svg id="レイヤー_1" data-name="レイヤー 1" xmlns="http://www.w3.org/2000/svg" viewBox="0 0 100 100"><defs><style>.cls-1,.cls-2,.cls-3,.cls-4{fill:none;stroke-linecap:round;stroke-linejoin:round;stroke-width:2px;}.cls-1{stroke:#333;}.cls-2,.cls-3,.cls-4{stroke:#e53144;}.cls-3{stroke-dasharray:0.17 4.06;}.cls-4{stroke-dasharray:0.17 4.06 0.17 4.06;}</style></defs><path class="cls-1" d="M17,21H83a4,4,0,0,1,4,4V75a0,0,0,0,1,0,0H13a0,0,0,0,1,0,0V25A4,4,0,0,1,17,21Z"/><polygon class="cls-1" points="99 92 1 92 13 75 87 75 99 92"/><rect class="cls-1" x="1" y="92" width="98" height="7"/><line class="cls-1" x1="17" y1="83" x2="83" y2="83"/><path class="cls-1" d="M19,25H81a2,2,0,0,1,2,2V71a0,0,0,0,1,0,0H17a0,0,0,0,1,0,0V27A2,2,0,0,1,19,25Z"/><rect class="cls-2" x="26" y="36" width="25" height="25"/><line class="cls-2" x1="57" y1="40" x2="57.13" y2="40"/><line class="cls-3" x1="61.19" y1="40" x2="63.39" y2="40"/><line class="cls-4" x1="65.42" y1="40" x2="71.84" y2="40"/><line class="cls-2" x1="73.88" y1="40" x2="74" y2="40"/><line class="cls-2" x1="57" y1="46" x2="74" y2="46"/><line class="cls-2" x1="57" y1="52" x2="74" y2="52"/><line class="cls-2" x1="57" y1="58" x2="74" y2="58"/><polyline class="cls-2" points="26.18 55.18 33.38 46.38 45.7 60.3"/><polyline class="cls-2" points="40.54 54.07 44.38 49.38 50.29 56.05"/><circle class="cls-2" cx="44" cy="43" r="3"/><line class="cls-2" x1="50.5" y1="1" x2="50.5" y2="8"/><line class="cls-2" x1="22.53" y1="9.03" x2="27.47" y2="13.97"/><line class="cls-2" x1="77.47" y1="9.03" x2="72.53" y2="13.97"/></svg>