<svg id="レイヤー_1" data-name="レイヤー 1" xmlns="http://www.w3.org/2000/svg" viewBox="0 0 100 100"><defs><style>.cls-1{fill:#e53144;}.cls-2,.cls-4{fill:none;stroke-linecap:round;stroke-linejoin:round;stroke-width:2px;}.cls-2{stroke:#e53144;}.cls-3{fill:#333;}.cls-4{stroke:#333;}</style></defs><circle class="cls-1" cx="73" cy="8" r="1"/><circle class="cls-1" cx="69" cy="8" r="1"/><circle class="cls-1" cx="65" cy="8" r="1"/><polygon class="cls-2" points="79 1 79 15 67 15 63 18.91 63 15 59 15 59 1 79 1"/><path class="cls-3" d="M50,34c6,0,10.84,5.82,10.84,13S56,60,50,60,39.16,54.14,39.16,47,44,34,50,34m0-2c-7.09,0-12.84,6.71-12.84,15S42.91,62,50,62s12.84-6.71,12.84-15S57.09,32,50,32Z"/><path class="cls-4" d="M24.31,99,28.1,75.46C28.73,70,34,65.82,40.28,65.82H59.72C66,65.82,71.27,70,71.9,75.46L75.69,99"/><circle class="cls-1" cx="14" cy="23.1" r="1.5"/><circle class="cls-1" cx="20" cy="23.1" r="1.5"/><circle class="cls-1" cx="26" cy="23.1" r="1.5"/><polygon class="cls-2" points="5 12 5 34 23 34 29 40 29 34 35 34 35 12 5 12"/><circle class="cls-1" cx="90" cy="42.1" r="1.5"/><circle class="cls-1" cx="84" cy="42.1" r="1.5"/><circle class="cls-1" cx="78" cy="42.1" r="1.5"/><polygon class="cls-2" points="99 31 99 53 81 53 75 59 75 53 69 53 69 31 99 31"/></svg>