<svg id="レイヤー_1" data-name="レイヤー 1" xmlns="http://www.w3.org/2000/svg" viewBox="0 0 100 100"><defs><style>.cls-1,.cls-2{fill:none;stroke-linecap:round;stroke-linejoin:round;stroke-width:2px;}.cls-1{stroke:#333;}.cls-2{stroke:#e53144;}</style></defs><polyline class="cls-1" points="82 48 88 48 88 87"/><line class="cls-2" x1="44" y1="40" x2="58" y2="40"/><line class="cls-2" x1="33" y1="56" x2="69" y2="56"/><line class="cls-2" x1="33" y1="65" x2="69" y2="65"/><line class="cls-2" x1="33" y1="74" x2="69" y2="74"/><path class="cls-1" d="M75,99H33A10,10,0,0,1,23,89V24H79V90a9,9,0,0,0,9,9h0a9,9,0,0,0,9-9V55H91"/><line class="cls-2" x1="50.5" y1="1" x2="50.5" y2="8"/><line class="cls-2" x1="22.53" y1="9.03" x2="27.47" y2="13.97"/><line class="cls-2" x1="77.47" y1="9.03" x2="72.53" y2="13.97"/></svg>