<svg xmlns="http://www.w3.org/2000/svg" width="300" height="30.75" viewBox="0 0 300 30.75">
  <defs>
    <style>
      .cls-1 {
        fill: #fff;
        fill-rule: evenodd;
      }
    </style>
  </defs>
  <path id="logo_mono.svg" class="cls-1" d="M196.8,497.535L184,508.56l2.4,2.635,12.865-10.908Zm13.543,8.316-11.127-12.737-2.582,2.457,11.011,12.8Zm-10.861,11.223,2.489,2.554,12.494-11.336-2.555-2.668Zm-11.225-5.859,11.154,12.675,2.67-2.551-11.268-12.61Zm9.323-2.839a1.868,1.868,0,1,0,1.867-1.881A1.877,1.877,0,0,0,197.583,508.376Zm2.654,0a0.787,0.787,0,1,1-.787-0.792A0.791,0.791,0,0,1,200.237,508.376Zm-3.94.006a3.154,3.154,0,1,0,3.154-3.176A3.169,3.169,0,0,0,196.3,508.382Zm5.7,0a2.545,2.545,0,1,1-2.545-2.563A2.556,2.556,0,0,1,202,508.382Zm-6.96,0a4.415,4.415,0,1,0,4.415-4.447A4.435,4.435,0,0,0,195.036,508.382Zm8.363,0a3.949,3.949,0,1,1-3.948-3.977A3.966,3.966,0,0,1,203.4,508.382Zm-9.194,0a5.3,5.3,0,1,0,5.3-5.284A5.3,5.3,0,0,0,194.205,508.383Zm10.364,0a5.06,5.06,0,1,1-5.059-5.039A5.054,5.054,0,0,1,204.569,508.383ZM223.345,497.5h-3.658v3.743h-3.305v3.685h3.305v0.224l-3.186,4.469v6.239l3.186-4.338v8.318h3.658v-9.754l2.536,2.446v-4.278l-2.536-3.135V504.93h2.595v-3.685h-2.595V497.5Zm11.15,7.428H238.8v-3.685H234.5V497.5h-3.658v3.743h-0.885v-2.792h-3.186v6.477h4.071v1.959h-4.248v3.684h4.074l-4.516,4.605v4.664l4.69-4.638v4.638H234.5v-4.107l4.366,4.227v-4.635L234.5,510.7v-0.128h4.484v-3.684H234.5V504.93Zm15.1,5.643h3.895v-3.684H241.81v3.684h4.13v5.734h-4.366v3.684h12.155v-3.684H249.6v-5.734Zm9.558-12.417H255.2l0.031,3.089H240.572v3.685h14.7l0.11,11.169,3.422,4.338h4.307v-3.268h-2.478L259.1,515.03l0.035-10.1h3.978v-3.685h-3.965Zm3.894,0.653h-3.187v2.2l3.187-.06v-2.139Zm9.263-.475-7.257,5.229v5.05l4.956-3.8v3.32h11.8v-3.272l5.251,4.044V504.4l-8.082-6.061h-6.667Zm-2.136,6.358,3.493-2.674,4.366-.06,3.549,2.734H270.177Zm-5,8.555h3.984l-3.276,7.011h20.3l-2.418-5.822h-3.894l0.826,2.5h-8.968v-0.178l1.768-3.506h13.394v-3.624H265.174v3.624Zm34.337-2.2-3.1-3.12,2.448-2.465V501.9h-2.183v-3.683h-3.54V501.9h-4.13v3.565h4.012V506.3l-4.012,5.467v5.94l3.953-4.99V520.5h3.776v-7.248l2.773,2.317v-4.516Zm7.552-12.893H303.4v3.921H300.22v3.447H303.4v11.7h-4.012v3.387h11.092v-3.446h-3.422V505.582h3.481v-3.446h-3.481v-3.981Zm26.549,1.189V496.67h-5.25v2.852h-8.2l-2.95,4.754H328.3v3.03h-6.726l-8.142,13.19h5.959l5.015-8.259h4.011v8.081h5.251v-16.1h1.475l2.715-4.872h-4.249Zm6.962-.059-3.009,4.813,10.738-.12-9.853,16.28h6.136l12.625-20.973H340.574Zm10.8,15.447,4.72,0.06v5.288h5.014V509.029l3.423-5.348h-5.9Zm31.681-15.507H367.359l-2.831,4.456,9.587,0.029-9.824,16.428h6.077l4.72-7.248,4.131,7.486h6.135l-7.316-12.833Zm1.889,12.893,4.9-.059v-4.932h-4.9v4.991Zm13.51-12.537h-5.132v20.855l5.162-.029,0.088-7.933H403.7l3.185-5.11h-8.437v-7.783Zm19.764,4.872h-5.132v2.971H408.6v6.238h4.543V512h4.66l-2.242,3.861h-7.08v4.695h10.208l3.716-6.179v-6.952h-4.19v-2.971Zm7.14,8.259h7.788l3.008-5.288h-10.8v5.288Zm12.626,0.059h4.484v-5.228h-4.484v5.228Zm8.082-4.93h5.074V504.81h7.021v6.418l-2.891,4.693h-9.085V520.5h12.566l4.838-8.021V500.057H446.063v7.784Zm29.972-7.784h-9.912v4.931l7.374,0.06Zm2.36,0.119v11.289l-2.833,4.219H466.3v5.287h12.744l4.956-8.2V500.176h-5.6Z" transform="translate(-184 -493.125)"/>
</svg>
