<svg xmlns="http://www.w3.org/2000/svg" width="24" height="24" viewBox="0 0 24 24">
  <defs>
    <style>
      .cls-1 {
        fill: #fff;
        fill-rule: evenodd;
      }
    </style>
  </defs>
  <path id="icon_tel.svg" class="cls-1" d="M791.173,301.387l-2.933-2.934a1.338,1.338,0,0,1-.333-1.36,15.154,15.154,0,0,0,.76-4.76A1.337,1.337,0,0,1,790,291h4.667A1.337,1.337,0,0,1,796,292.333,22.665,22.665,0,0,1,773.333,315,1.337,1.337,0,0,1,772,313.667v-4.654a1.337,1.337,0,0,1,1.333-1.333,15.214,15.214,0,0,0,4.76-.76,1.326,1.326,0,0,1,1.36.32l2.934,2.933A20.2,20.2,0,0,0,791.173,301.387Z" transform="translate(-772 -291)"/>
</svg>
