<svg id="レイヤー_1" data-name="レイヤー 1" xmlns="http://www.w3.org/2000/svg" viewBox="0 0 457.6 47.6"><defs><style>.cls-1{fill:#0b025b;}.cls-2{fill:#fff593;}.cls-3,.cls-4,.cls-5,.cls-6{fill:none;stroke:#e83820;}.cls-3{stroke-width:1.65px;}.cls-4{stroke-width:0.93px;}.cls-5{stroke-width:0.71px;}.cls-6{stroke-width:0.37px;}</style></defs><polygon class="cls-1" points="3.67 27.39 0 23.39 19.53 6.7 23.29 10.87 3.67 27.39"/><polygon class="cls-1" points="19.27 3.72 23.21 0 40.19 19.29 36.07 23.11 19.27 3.72"/><polygon class="cls-1" points="27.42 40.16 23.62 36.29 42.58 18.95 46.47 22.99 27.42 40.16"/><polygon class="cls-1" points="6.5 27.41 10.4 23.65 27.58 42.75 23.51 46.61 6.5 27.41"/><path class="cls-2" d="M31.67,23.11a7.92,7.92,0,1,1-7.92-7.92A7.92,7.92,0,0,1,31.67,23.11Z"/><path class="cls-3" d="M25.59,23.12a2,2,0,1,1-2-2A2,2,0,0,1,25.59,23.12Z"/><path class="cls-4" d="M27.91,23.12a4.35,4.35,0,1,1-4.34-4.34A4.34,4.34,0,0,1,27.91,23.12Z"/><path class="cls-5" d="M30,23.12a6.38,6.38,0,1,1-6.38-6.37A6.38,6.38,0,0,1,30,23.12Z"/><path class="cls-6" d="M31.56,23.13a7.91,7.91,0,1,1-7.9-7.82A7.86,7.86,0,0,1,31.56,23.13Z"/><polygon class="cls-1" points="54.61 17.98 49.57 25 49.57 34.45 54.43 27.88 54.61 17.98"/><polygon class="cls-1" points="60.01 6.65 54.43 6.65 54.43 12.31 49.39 12.31 49.39 17.9 54.43 17.9 54.43 40.48 60.01 40.48 60.01 25.71 63.88 29.41 63.88 22.93 60.01 18.19 60.01 17.9 63.97 17.9 63.97 12.31 60.01 12.31 60.01 6.65"/><polygon class="cls-1" points="77.02 17.9 83.59 17.9 83.59 12.31 77.02 12.31 77.02 6.65 71.44 6.65 71.44 12.31 70.09 12.31 70.09 8.09 65.23 8.09 65.23 17.9 71.44 17.9 71.44 20.86 64.96 20.86 64.96 26.44 71.18 26.44 64.29 33.42 64.29 40.48 71.44 33.46 71.44 40.48 77.02 40.48 77.02 34.26 83.68 40.66 83.68 33.64 77.02 26.64 77.02 26.44 83.86 26.44 83.86 20.86 77.02 20.86 77.02 17.9"/><polygon class="cls-1" points="100.06 26.44 106 26.44 106 20.86 88.18 20.86 88.18 26.44 94.48 26.44 94.48 35.13 87.82 35.13 87.82 40.71 106.36 40.71 106.36 35.13 100.06 35.13 100.06 26.44"/><polygon class="cls-1" points="114.64 7.64 108.61 7.64 108.65 12.31 86.29 12.31 86.29 17.9 108.71 17.9 108.88 34.81 114.1 41.38 120.67 41.38 120.67 36.43 116.89 36.43 114.55 33.2 114.6 17.9 120.67 17.9 120.67 12.31 114.62 12.31 114.64 7.64"/><polygon class="cls-1" points="120.58 8.63 115.72 8.63 115.72 11.96 120.58 11.87 120.58 8.63"/><path class="cls-1" d="M134.71,7.91l-11.07,7.92v7.64l7.56-5.74v5h18v-5l8,6.12V17.09L144.87,7.91Zm-3.26,9.63,5.32-4,6.66-.09,5.42,4.14Z"/><polygon class="cls-1" points="123.82 30.49 129.89 30.49 124.9 41.11 155.85 41.11 152.16 32.29 146.22 32.29 147.48 36.07 133.81 36.07 133.81 35.8 136.5 30.49 156.93 30.49 156.93 25 123.82 25 123.82 30.49"/><polygon class="cls-1" points="176.19 27.16 171.47 22.44 175.2 18.7 175.2 13.3 171.87 13.3 171.87 7.73 166.47 7.73 166.47 13.3 160.17 13.3 160.17 18.7 166.29 18.7 166.29 19.96 160.17 28.24 160.17 37.24 166.2 29.68 166.2 41.47 171.96 41.47 171.96 30.49 176.19 34 176.19 27.16"/><polygon class="cls-1" points="187.71 7.63 182.13 7.63 182.13 13.57 177.27 13.57 177.27 18.8 182.13 18.8 182.13 36.52 176.01 36.52 176.01 41.65 192.93 41.65 192.93 36.43 187.71 36.43 187.71 18.88 193.02 18.88 193.02 13.66 187.71 13.66 187.71 7.63"/><polygon class="cls-1" points="228.21 9.44 228.21 5.39 220.2 5.39 220.2 9.71 207.69 9.71 203.19 16.91 220.11 16.91 220.11 21.5 209.85 21.5 197.43 41.47 206.52 41.47 214.17 28.96 220.29 28.96 220.29 41.2 228.3 41.2 228.3 16.82 230.55 16.82 234.69 9.44 228.21 9.44"/><polygon class="cls-1" points="238.83 9.35 234.24 16.64 250.62 16.45 235.59 41.11 244.94 41.11 264.2 9.35 238.83 9.35"/><polygon class="cls-1" points="255.29 32.74 262.49 32.83 262.49 40.84 270.14 40.84 270.14 24.1 275.36 16 266.36 16 255.29 32.74"/><polygon class="cls-1" points="303.62 9.26 279.68 9.26 275.36 16 289.99 16.05 275 40.93 284.27 40.93 291.47 29.95 297.77 41.29 307.13 41.29 295.97 21.85 303.62 9.26"/><polygon class="cls-1" points="306.5 28.78 313.97 28.69 313.97 21.22 306.5 21.22 306.5 28.78"/><polygon class="cls-1" points="327.11 9.79 319.28 9.79 319.28 41.38 327.15 41.34 327.29 29.32 335.12 29.32 339.98 21.58 327.11 21.58 327.11 9.79"/><polygon class="cls-1" points="357.25 17.18 349.43 17.18 349.43 21.67 342.59 21.67 342.59 31.12 349.52 31.12 349.52 28.6 356.63 28.6 353.2 34.45 342.41 34.45 342.41 41.56 357.98 41.56 363.64 32.2 363.64 21.67 357.25 21.67 357.25 17.18"/><polygon class="cls-1" points="368.14 29.68 380.02 29.68 384.61 21.67 368.14 21.67 368.14 29.68"/><rect class="cls-1" x="387.4" y="21.85" width="6.84" height="7.92"/><polygon class="cls-1" points="399.73 22.3 399.73 10.52 426.46 10.52 426.46 29.32 419.08 41.47 399.91 41.47 399.91 34.54 413.77 34.54 418.18 27.44 418.18 17.71 407.47 17.71 407.47 22.3 399.73 22.3"/><polygon class="cls-1" points="430.33 17.98 430.33 10.52 445.45 10.52 441.58 18.07 430.33 17.98"/><polygon class="cls-1" points="430.6 42.19 430.6 34.19 444.73 34.19 449.05 27.8 449.05 10.7 457.6 10.7 457.6 29.77 450.04 42.19 430.6 42.19"/></svg>