<svg id="twitter" xmlns="http://www.w3.org/2000/svg" width="22" height="17" viewBox="0 0 22 17">
  <defs>
    <style>
      .cls-1 {
        fill: #1da1f2;
        fill-rule: evenodd;
      }
    </style>
  </defs>
  <path id="Logo_FIXED" data-name="Logo — FIXED" class="cls-1" d="M777.918,317a12.431,12.431,0,0,0,12.843-12.21q0-.279-0.012-0.555A8.958,8.958,0,0,0,793,302.012a9.333,9.333,0,0,1-2.593.676,4.348,4.348,0,0,0,1.986-2.374,9.308,9.308,0,0,1-2.866,1.042A4.62,4.62,0,0,0,786.233,300a4.408,4.408,0,0,0-4.515,4.291,4.107,4.107,0,0,0,.117.979,13.043,13.043,0,0,1-9.3-4.484,4.116,4.116,0,0,0-.61,2.157,4.233,4.233,0,0,0,2.007,3.572,4.662,4.662,0,0,1-2.044-.537v0.055a4.355,4.355,0,0,0,3.62,4.208,4.716,4.716,0,0,1-2.038.073,4.494,4.494,0,0,0,4.217,2.98A9.5,9.5,0,0,1,771,315.072,13.248,13.248,0,0,0,777.918,317" transform="translate(-771 -300)"/>
</svg>
