<svg xmlns="http://www.w3.org/2000/svg" width="16" height="19" viewBox="0 0 16 19">
  <defs>
    <style>
      .cls-1 {
        fill: gray;
        fill-rule: evenodd;
      }
    </style>
  </defs>
  <path id="シェイプ_2" data-name="シェイプ 2" class="cls-1" d="M520,2580c-4,0-8,.5-8,4v9.5a3.5,3.5,0,0,0,3.5,3.5l-1.5,1.5v0.5h2.23l2-2H522l2,2h2v-0.5l-1.5-1.5a3.5,3.5,0,0,0,3.5-3.5V2584C528,2580.5,524.42,2580,520,2580Zm-4.5,15a1.5,1.5,0,1,1,1.5-1.5A1.5,1.5,0,0,1,515.5,2595Zm3.5-7h-5v-4h5v4Zm2,0v-4h5v4h-5Zm3.5,7a1.5,1.5,0,1,1,1.5-1.5A1.5,1.5,0,0,1,524.5,2595Z" transform="translate(-512 -2580)"/>
</svg>
