<?xml version="1.0" encoding="utf-8"?>
<!-- Generator: Adobe Illustrator 22.1.0, SVG Export Plug-In . SVG Version: 6.00 Build 0)  -->
<svg version="1.1" id="レイヤー_1" xmlns="http://www.w3.org/2000/svg" xmlns:xlink="http://www.w3.org/1999/xlink" x="0px"
	 y="0px" width="210px" height="50px" viewBox="0 0 210 50" style="enable-background:new 0 0 210 50;" xml:space="preserve">
<style type="text/css">
	.st0{fill:#9E9289;}
</style>
<g>
	<g>
		<g>
			<g>
				<path class="st0" d="M5.1,6.8c0,3.2,2.6,5.8,5.8,5.8c3.2,0,5.8-2.6,5.8-5.8C16.8,3.6,14.2,1,11,1C7.7,1,5.1,3.6,5.1,6.8z
					 M6.9,6.8c0-2.2,1.8-4.1,4.1-4.1c2.2,0,4.1,1.8,4.1,4.1c0,2.2-1.8,4.1-4.1,4.1C8.7,10.9,6.9,9.1,6.9,6.8z"/>
				<rect x="10.1" y="12.1" class="st0" width="1.8" height="19.6"/>
				<path class="st0" d="M20.8,31.3H10.1c0,0,0,10.7,0,12.2c-1.4,0-8,0-8,0L2,48l1.8,0c0,0,0-1.7,0-2.7c1.4,0,8,0,8,0s0-10.7,0-12.2
					c1.3,0,6.7,0,8.1,0c0,1.6,0,14.8,0,14.8h5.8V46c0,0-2.9,0-4,0c0-1.6,0-14.8,0-14.8H20.8z"/>
				<rect x="11.6" y="18.9" class="st0" width="13.9" height="1.8"/>
				<path class="st0" d="M38.8,8.3h-7.1V18h8V8.3H38.8z M37.9,10.1c0,1.2,0,4.9,0,6.1c-1.1,0-3.3,0-4.4,0c0-1.2,0-4.9,0-6.1
					C34.6,10.1,36.9,10.1,37.9,10.1z"/>
				<path class="st0" d="M34.6,20.6l-5.8,27.9l1.7,0.4c0,0,3.8-18,5-23.9c1.3,5.9,5.4,23.9,5.4,23.9l1.7-0.4l-6.3-27.9L34.6,20.6z"
					/>
			</g>
			<rect x="41.8" y="11" class="st0" width="1.8" height="4.6"/>
		</g>
		<g>
			<path class="st0" d="M62.9,40.7c0.3-0.6,0.9-0.9,1.6-0.9c1.1,0,2,1,2,2.6c0,1.8-1.1,2.7-2.1,2.7c-0.6,0-1.1-0.3-1.3-0.7h0V47
				h-1.1v-5.4c0-0.7,0-1.2,0-1.6h0.9L62.9,40.7L62.9,40.7z M63,43c0,0.9,0.6,1.3,1.1,1.3c0.8,0,1.3-0.8,1.3-1.8c0-1-0.4-1.7-1.2-1.7
				c-0.6,0-1.2,0.6-1.2,1.3V43z"/>
			<path class="st0" d="M76.2,45h-1.1v-2.9c0-0.7-0.2-1.3-1-1.3c-0.5,0-1.1,0.4-1.1,1.2V45H72v-7.3h1.1v3h0c0.3-0.5,0.9-0.8,1.4-0.8
				c0.8,0,1.6,0.5,1.6,2.1V45z"/>
			<path class="st0" d="M86.4,42.4c0,1.9-1.2,2.7-2.4,2.7c-1.3,0-2.3-1-2.3-2.6c0-1.7,1-2.7,2.4-2.7C85.5,39.9,86.4,40.9,86.4,42.4z
				 M84.1,40.7c-0.9,0-1.2,1-1.2,1.8c0,1,0.5,1.8,1.2,1.8c0.8,0,1.2-0.8,1.2-1.8C85.3,41.6,85,40.7,84.1,40.7z"/>
			<path class="st0" d="M92.2,39.1l1-0.3V40h1.2v0.8h-1.2v2.5c0,0.6,0.2,0.9,0.6,0.9c0.2,0,0.3,0,0.5-0.1l0,0.8
				c-0.2,0.1-0.5,0.1-0.8,0.1c-0.4,0-0.8-0.1-1-0.4c-0.3-0.3-0.4-0.7-0.4-1.3v-2.6h-0.7V40h0.7V39.1z"/>
			<path class="st0" d="M104.2,42.4c0,1.9-1.2,2.7-2.3,2.7c-1.3,0-2.3-1-2.3-2.6c0-1.7,1-2.7,2.4-2.7
				C103.3,39.9,104.2,40.9,104.2,42.4z M101.9,40.7c-0.9,0-1.2,1-1.2,1.8c0,1,0.5,1.8,1.2,1.8c0.8,0,1.2-0.8,1.2-1.8
				C103.1,41.6,102.8,40.7,101.9,40.7z"/>
			<path class="st0" d="M126,40.9c-0.2-0.1-0.5-0.3-1-0.3c-0.5,0-0.7,0.3-0.7,0.6c0,0.3,0.2,0.5,0.8,0.8c0.8,0.3,1.3,0.8,1.3,1.5
				c0,1-0.7,1.5-1.9,1.5c-0.5,0-1-0.1-1.4-0.3l0.2-0.8c0.3,0.2,0.7,0.3,1.1,0.3c0.6,0,0.8-0.3,0.8-0.7c0-0.4-0.2-0.6-0.8-0.8
				c-0.9-0.4-1.3-0.9-1.3-1.4c0-0.8,0.7-1.5,1.7-1.5c0.5,0,0.9,0.1,1.2,0.3L126,40.9z"/>
			<path class="st0" d="M132.2,39.1l1-0.3V40h1.2v0.8h-1.2v2.5c0,0.6,0.2,0.9,0.6,0.9c0.2,0,0.3,0,0.5-0.1l0,0.8
				c-0.2,0.1-0.5,0.1-0.8,0.1c-0.4,0-0.8-0.1-1-0.4c-0.3-0.3-0.4-0.7-0.4-1.3v-2.6h-0.7V40h0.7V39.1z"/>
			<path class="st0" d="M144,43.5c0,0.6,0,1,0,1.4h-0.9l-0.1-0.7h0c-0.2,0.3-0.7,0.8-1.5,0.8c-0.9,0-1.6-0.5-1.6-2.1v-3h1.1v2.8
				c0,0.9,0.2,1.4,0.9,1.4c0.5,0,1-0.4,1-1.1V40h1.1V43.5z"/>
			<path class="st0" d="M154.1,43.6c0,0.5,0,1,0,1.3h-0.9l-0.1-0.8h0c-0.3,0.5-0.8,0.9-1.5,0.9c-1.1,0-2-1-2-2.6
				c0-1.7,1-2.7,2.1-2.7c0.6,0,1.1,0.3,1.3,0.7h0v-2.9h1.1V43.6z M153,42c0-0.8-0.5-1.3-1.1-1.3c-0.8,0-1.3,0.8-1.3,1.8
				c0,1,0.4,1.7,1.2,1.7c0.7,0,1.1-0.6,1.1-1.3V42z"/>
			<path class="st0" d="M160.5,39.2c-0.4,0-0.6-0.3-0.6-0.6c0-0.4,0.3-0.6,0.6-0.6c0.4,0,0.6,0.3,0.6,0.6
				C161.1,38.9,160.9,39.2,160.5,39.2z M161,45H160v-5h1.1V45z"/>
			<path class="st0" d="M171.3,42.4c0,1.9-1.2,2.7-2.3,2.7c-1.3,0-2.3-1-2.3-2.6c0-1.7,1-2.7,2.4-2.7
				C170.4,39.9,171.3,40.9,171.3,42.4z M169,40.7c-0.9,0-1.3,1-1.3,1.8c0,1,0.5,1.8,1.2,1.8c0.8,0,1.2-0.8,1.2-1.8
				C170.2,41.6,169.9,40.7,169,40.7z"/>
		</g>
	</g>
	<g>
		<path class="st0" d="M63.8,27c1.2,1.2,1.9,2,3.1,2c1.2,0,2.4-0.4,2.4-1.5c0-3.2-6-2.1-6-5.8c0-2.3,1.6-3.6,3.6-3.6
			c1.7,0,2.6,0.2,4.5,1.6l-1.3,1.5c-0.9-0.9-1.9-1.3-3-1.3c-1,0-2,0.4-2,1.5c0,2.3,6.1,1.8,6.1,5.6c0,2.4-2,3.7-4.2,3.7
			c-1.6,0-3-0.6-4.7-2.3L63.8,27z"/>
		<path class="st0" d="M92.5,23.2c0-1.9,1.1-3.5,2.8-3.5c1.7,0,2.6,1.7,2.6,3.4L92.5,23.2z M100,25c0-5.5-2.2-7-4.6-7
			c-3,0-5.2,3.1-5.2,6.4c0,3.8,2.2,6.4,5.5,6.4c1.6,0,2.9-0.6,4.5-1.6L99,27.6c-1.1,0.7-2.3,1.2-3.7,1.2c-2,0-3-2-3-3.9H100z"/>
		<path class="st0" d="M146.1,18.7c0.2-4.8,3.2-5.7,7.2-3.7l0,1.9c-1.3-0.7-2.7-0.8-3.1-0.8c-1.5,0-2.1,0.7-2.1,3.1h3.9V21h-3.9v9.7
			l-2,0V18.7z"/>
		<path class="st0" d="M205.8,20h-4.1v7.1c0,1.6,0.6,1.9,1.4,1.9c0.8,0,1.5-0.6,2.4-2.2l1.8,0.8c-1.8,2.7-3,3.1-4.5,3.1
			c-1.8,0-2.8-1.5-2.9-2.3l0-14l1.8,0v3.8h4.1V20z"/>
		<polygon class="st0" points="124,30.7 122.2,30.7 122.2,15.7 118.9,15.7 118.9,14 124,14 		"/>
		<g>
			<polygon class="st0" points="172.1,18.7 172.1,20.3 175.4,20.3 175.4,30.7 177.2,30.7 177.2,20.3 177.2,18.8 177.2,18.7 			"/>
			<path class="st0" d="M177.8,15.7c0-0.8-0.7-1.5-1.5-1.5c-0.8,0-1.5,0.7-1.5,1.5c0,0.8,0.7,1.5,1.5,1.5
				C177.1,17.2,177.8,16.5,177.8,15.7z"/>
		</g>
	</g>
</g>
</svg>
